<svg xmlns="http://www.w3.org/2000/svg" xmlns:xlink="http://www.w3.org/1999/xlink"><symbol id="ARRORW" viewBox="0 0 10 7"><path d="M.707 1.293l5 5m-1.414 0l5-5"/></symbol><symbol id="EMAIL" viewBox="0 0 32 32"><path d="M5.072 9.203a2.829 2.829 0 011.01-1.585C6.592 7.218 7.224 7 7.875 7h17.25c.651 0 1.283.218 1.793.618.509.4.865.96 1.01 1.585L16.5 16.087 5.072 9.203zM5 10.82v10.064l8.342-5.04L5 10.82zm9.719 5.855L5.275 22.38a2.887 2.887 0 002.6 1.619h17.25c.544 0 1.078-.152 1.538-.439.46-.287.828-.697 1.061-1.182l-9.444-5.705-1.78 1.073-1.781-1.073v.002zm4.94-.83L28 20.885V10.82l-8.342 5.023v.002z"/></symbol><symbol id="GITHUB" viewBox="0 0 32 32"><path d="M15.5 6C9.699 6 5 10.588 5 16.253c0 4.537 3.006 8.369 7.18 9.727.524.09.721-.218.721-.487 0-.243-.013-1.05-.013-1.91-2.638.475-3.32-.627-3.53-1.204-.119-.295-.63-1.205-1.077-1.448-.367-.192-.892-.667-.013-.68.827-.012 1.418.744 1.614 1.051.946 1.551 2.455 1.116 3.059.846.091-.666.367-1.115.669-1.371-2.336-.256-4.777-1.14-4.777-5.062 0-1.115.406-2.038 1.076-2.756-.105-.256-.473-1.307.105-2.717 0 0 .88-.269 2.887 1.051a9.964 9.964 0 012.625-.346c.893 0 1.785.115 2.625.346 2.008-1.333 2.888-1.05 2.888-1.05.577 1.409.21 2.46.105 2.716.67.718 1.076 1.628 1.076 2.756 0 3.934-2.454 4.806-4.79 5.062.38.32.708.936.708 1.897 0 1.371-.013 2.473-.013 2.82 0 .268.197.589.722.486a10.5 10.5 0 005.179-3.74A10.105 10.105 0 0026 16.253C26 10.588 21.301 6 15.5 6z"/></symbol><symbol id="LANDMARK" viewBox="0 0 32 32"><path d="M16.5 28S26 19.116 26 12.375c0-2.486-1-4.871-2.782-6.63A9.565 9.565 0 0016.5 3c-2.52 0-4.936.988-6.718 2.746A9.313 9.313 0 007 12.375C7 19.115 16.5 28 16.5 28zm0-10.938a4.783 4.783 0 01-3.359-1.372 4.657 4.657 0 01-1.391-3.315c0-1.243.5-2.435 1.391-3.315A4.782 4.782 0 0116.5 7.687c1.26 0 2.468.494 3.359 1.373a4.656 4.656 0 011.391 3.315c0 1.243-.5 2.435-1.391 3.315a4.783 4.783 0 01-3.359 1.373z"/></symbol><symbol id="LINKEDIN" viewBox="0 0 32 32"><path d="M4 5.719C4 4.769 4.789 4 5.763 4h20.475C27.21 4 28 4.77 28 5.719v20.562c0 .95-.789 1.719-1.762 1.719H5.762C4.79 28 4 27.23 4 26.281V5.719zm7.415 18.372V13.253H7.813v10.838h3.602zm-1.8-12.318c1.255 0 2.037-.831 2.037-1.872-.023-1.063-.78-1.872-2.013-1.872-1.233 0-2.039.81-2.039 1.872 0 1.041.782 1.872 1.99 1.872h.024zm7.362 12.318v-6.053c0-.323.023-.648.12-.878.259-.647.851-1.318 1.848-1.318 1.303 0 1.823.993 1.823 2.452v5.797h3.602v-6.216c0-3.33-1.776-4.878-4.146-4.878-1.911 0-2.768 1.05-3.247 1.79v.037h-.024c.008-.012.015-.025.024-.037v-1.534h-3.6c.044 1.018 0 10.838 0 10.838h3.6z"/></symbol><symbol id="TELEGRAM" viewBox="0 0 32 32"><path d="M27 15.5a11.5 11.5 0 11-23 0 11.5 11.5 0 0123 0zm-11.087-3.01a557.091 557.091 0 00-6.708 2.89c-.543.215-.83.428-.855.635-.043.349.395.487.992.675l.251.08c.587.19 1.377.413 1.787.422.374.009.79-.144 1.248-.46 3.132-2.115 4.75-3.183 4.85-3.206.072-.017.172-.037.239.023s.06.173.053.203c-.043.185-1.764 1.784-2.654 2.612-.277.259-.474.441-.514.483-.09.09-.18.18-.27.267-.547.526-.955.92.02 1.564.47.31.848.565 1.223.821.408.279.816.556 1.345.904.134.087.263.18.388.27.476.338.906.643 1.434.594.307-.029.625-.316.786-1.178.38-2.037 1.13-6.45 1.302-8.268.01-.15.005-.303-.018-.452a.485.485 0 00-.164-.312.756.756 0 00-.446-.134c-.431.007-1.097.239-4.29 1.567z"/></symbol><symbol id="THREADS" viewBox="0 0 192 192"><path class="x19hqcy" d="M141.537 88.988a66.667 66.667 0 00-2.518-1.143c-1.482-27.307-16.403-42.94-41.457-43.1h-.34c-14.986 0-27.449 6.396-35.12 18.036l13.779 9.452c5.73-8.695 14.724-10.548 21.348-10.548h.229c8.249.053 14.474 2.452 18.503 7.129 2.932 3.405 4.893 8.111 5.864 14.05-7.314-1.243-15.224-1.626-23.68-1.14-23.82 1.371-39.134 15.264-38.105 34.568.522 9.792 5.4 18.216 13.735 23.719 7.047 4.652 16.124 6.927 25.557 6.412 12.458-.683 22.231-5.436 29.049-14.127 5.178-6.6 8.453-15.153 9.899-25.93 5.937 3.583 10.337 8.298 12.767 13.966 4.132 9.635 4.373 25.468-8.546 38.376-11.319 11.308-24.925 16.2-45.488 16.351-22.809-.169-40.06-7.484-51.275-21.742C35.236 139.966 29.808 120.682 29.605 96c.203-24.682 5.63-43.966 16.133-57.317C56.954 24.425 74.204 17.11 97.013 16.94c22.975.17 40.526 7.52 52.171 21.847 5.71 7.026 10.015 15.86 12.853 26.162l16.147-4.308c-3.44-12.68-8.853-23.606-16.219-32.668C147.036 9.607 125.202.195 97.07 0h-.113C68.882.194 47.292 9.642 32.788 28.08 19.882 44.485 13.224 67.315 13.001 95.932L13 96v.067c.224 28.617 6.882 51.447 19.788 67.854C47.292 182.358 68.882 191.806 96.957 192h.113c24.96-.173 42.554-6.708 57.048-21.189 18.963-18.945 18.392-42.692 12.142-57.27-4.484-10.454-13.033-18.945-24.723-24.553zM98.44 129.507c-10.44.588-21.286-4.098-21.82-14.135-.397-7.442 5.296-15.746 22.461-16.735a99.978 99.978 0 015.79-.169c6.235 0 12.068.606 17.371 1.765-1.978 24.702-13.58 28.713-23.802 29.274z"/></symbol><symbol id="TWITTER" viewBox="0 0 32 32"><path d="M11.225 26c8.68 0 13.428-7.312 13.428-13.641 0-.205 0-.412-.01-.617A9.7 9.7 0 0027 9.255a9.448 9.448 0 01-2.715.757 4.81 4.81 0 002.08-2.656 9.298 9.298 0 01-3 1.16 4.7 4.7 0 00-2.678-1.452 4.656 4.656 0 00-2.994.504 4.771 4.771 0 00-2.075 2.252 4.876 4.876 0 00-.298 3.07 13.234 13.234 0 01-5.387-1.454 13.45 13.45 0 01-4.34-3.557 4.876 4.876 0 00-.514 3.497 4.808 4.808 0 001.977 2.908 4.717 4.717 0 01-2.136-.597v.066a4.855 4.855 0 001.068 3.037 4.714 4.714 0 002.715 1.666 4.674 4.674 0 01-2.126.085 4.796 4.796 0 001.68 2.383 4.67 4.67 0 002.73.945A9.372 9.372 0 014 23.858 13.272 13.272 0 0011.225 26z"/></symbol></svg>