<svg width="72" height="60" viewBox="0 0 72 60" fill="none" xmlns="http://www.w3.org/2000/svg">
<path fill-rule="evenodd" clip-rule="evenodd" d="M1.93849 21.8785L36.7676 0.860899L36.251 0.00471244L0.710913 21.4514L9.14747e-09 21.8804L0.711714 22.308L33.2518 41.8614L33.7668 41.0042L1.93849 21.8785ZM69.0962 20.1456L35.759 0.865658L36.2596 -1.48052e-07L70.3481 19.7145L71.0994 20.149L70.3467 20.5809L33.2582 41.8665L32.7604 40.9991L69.0962 20.1456ZM2.5474 31.0407L36.7724 9.85797L36.2462 9.00766L1.33669 30.614L0.652252 31.0376L1.3353 31.4634L33.2447 51.3571L33.7738 50.5085L2.5474 31.0407ZM69.8379 29.5066L35.7596 9.86599L36.2589 8.99959L71.0956 29.0773L71.8539 29.5144L71.0923 29.9456L33.2556 51.3679L32.7629 50.4977L69.8379 29.5066ZM2.54736 39.5165L36.7722 18.3581L36.2463 17.5075L1.3369 39.0892L0.65229 39.5124L1.33507 39.9386L33.2445 59.857L33.774 59.0087L2.54736 39.5165ZM69.7225 37.7832L35.7611 18.3669L36.2575 17.4988L70.9766 37.3482L71.7343 37.7815L70.9773 38.216L33.2582 59.8665L32.7604 58.9992L69.7225 37.7832Z" fill="white"/>
</svg>
