<svg width="72" height="60" viewBox="0 0 72 60" fill="none" xmlns="http://www.w3.org/2000/svg">
<path fill-rule="evenodd" clip-rule="evenodd" d="M1.92921 21.9457L36.7584 0.928052L36.2417 0.0718654L0.701635 21.5185L-0.00927739 21.9475L0.702436 22.3752L33.2425 41.9285L33.7576 41.0714L1.92921 21.9457ZM69.0869 20.2128L35.7497 0.932811L36.2503 0.0671528L70.3389 19.7816L71.0902 20.2161L70.3374 20.6481L33.2489 41.9336L32.7511 41.0663L69.0869 20.2128ZM2.53812 31.1078L36.7632 9.92512L36.2369 9.07481L1.32741 30.6811L0.642975 31.1048L1.32602 31.5306L33.2355 51.4242L33.7645 50.5756L2.53812 31.1078ZM69.8286 29.5738L35.7503 9.93315L36.2497 9.06674L71.0863 29.1444L71.8446 29.5815L71.083 30.0127L33.2463 51.4351L32.7536 50.5649L69.8286 29.5738ZM2.53808 39.5837L36.7629 18.4253L36.237 17.5747L1.32762 39.1563L0.643012 39.5796L1.32579 40.0058L33.2352 59.9241L33.7648 59.0758L2.53808 39.5837ZM69.7132 37.8503L35.7519 18.4341L36.2482 17.5659L70.9673 37.4154L71.725 37.8486L70.968 38.2831L33.2489 59.9336L32.7511 59.0663L69.7132 37.8503Z" fill="#C778DD"/>
</svg>
