<svg width="361" height="258" viewBox="0 0 361 258" fill="none" xmlns="http://www.w3.org/2000/svg">
<circle cx="14" cy="40" r="2" fill="#ABB2BF"/>
<circle cx="28.75" cy="40" r="2" fill="#ABB2BF"/>
<circle cx="43.5" cy="40" r="2" fill="#ABB2BF"/>
<circle cx="58.25" cy="40" r="2" fill="#ABB2BF"/>
<circle cx="73" cy="40" r="2" fill="#ABB2BF"/>
<circle cx="14" cy="54.75" r="2" fill="#ABB2BF"/>
<circle cx="28.75" cy="54.75" r="2" fill="#ABB2BF"/>
<circle cx="43.5" cy="54.75" r="2" fill="#ABB2BF"/>
<circle cx="58.25" cy="54.75" r="2" fill="#ABB2BF"/>
<circle cx="73" cy="54.75" r="2" fill="#ABB2BF"/>
<circle cx="14" cy="69.5" r="2" fill="#ABB2BF"/>
<circle cx="28.75" cy="69.5" r="2" fill="#ABB2BF"/>
<circle cx="43.5" cy="69.5" r="2" fill="#ABB2BF"/>
<circle cx="58.25" cy="69.5" r="2" fill="#ABB2BF"/>
<circle cx="73" cy="69.5" r="2" fill="#ABB2BF"/>
<circle cx="14" cy="84.25" r="2" fill="#ABB2BF"/>
<circle cx="28.75" cy="84.25" r="2" fill="#ABB2BF"/>
<circle cx="43.5" cy="84.25" r="2" fill="#ABB2BF"/>
<circle cx="58.25" cy="84.25" r="2" fill="#ABB2BF"/>
<circle cx="73" cy="84.25" r="2" fill="#ABB2BF"/>
<circle cx="14" cy="99" r="2" fill="#ABB2BF"/>
<circle cx="28.75" cy="99" r="2" fill="#ABB2BF"/>
<circle cx="43.5" cy="99" r="2" fill="#ABB2BF"/>
<circle cx="58.25" cy="99" r="2" fill="#ABB2BF"/>
<circle cx="73" cy="99" r="2" fill="#ABB2BF"/>
<circle cx="191" cy="145" r="2" fill="#ABB2BF"/>
<circle cx="205.75" cy="145" r="2" fill="#ABB2BF"/>
<circle cx="220.5" cy="145" r="2" fill="#ABB2BF"/>
<circle cx="235.25" cy="145" r="2" fill="#ABB2BF"/>
<circle cx="250" cy="145" r="2" fill="#ABB2BF"/>
<circle cx="191" cy="159.75" r="2" fill="#ABB2BF"/>
<circle cx="205.75" cy="159.75" r="2" fill="#ABB2BF"/>
<circle cx="220.5" cy="159.75" r="2" fill="#ABB2BF"/>
<circle cx="235.25" cy="159.75" r="2" fill="#ABB2BF"/>
<circle cx="250" cy="159.75" r="2" fill="#ABB2BF"/>
<circle cx="191" cy="174.5" r="2" fill="#ABB2BF"/>
<circle cx="205.75" cy="174.5" r="2" fill="#ABB2BF"/>
<circle cx="220.5" cy="174.5" r="2" fill="#ABB2BF"/>
<circle cx="235.25" cy="174.5" r="2" fill="#ABB2BF"/>
<circle cx="250" cy="174.5" r="2" fill="#ABB2BF"/>
<circle cx="191" cy="189.25" r="2" fill="#ABB2BF"/>
<circle cx="205.75" cy="189.25" r="2" fill="#ABB2BF"/>
<circle cx="220.5" cy="189.25" r="2" fill="#ABB2BF"/>
<circle cx="235.25" cy="189.25" r="2" fill="#ABB2BF"/>
<circle cx="250" cy="189.25" r="2" fill="#ABB2BF"/>
<circle cx="191" cy="204" r="2" fill="#ABB2BF"/>
<circle cx="205.75" cy="204" r="2" fill="#ABB2BF"/>
<circle cx="220.5" cy="204" r="2" fill="#ABB2BF"/>
<circle cx="235.25" cy="204" r="2" fill="#ABB2BF"/>
<circle cx="250" cy="204" r="2" fill="#ABB2BF"/>
<rect x="309.5" y="193.5" width="51" height="51" stroke="#ABB2BF"/>
<rect x="239.5" y="0.5" width="85" height="85" stroke="#ABB2BF"/>
<path fill-rule="evenodd" clip-rule="evenodd" d="M2.34491 174.708L79.3926 128.025L78.8753 127.168L1.11918 174.28L0.410808 174.709L1.12108 175.138L72.3136 218.091L72.8272 217.233L2.34491 174.708ZM151.621 170.902L77.7893 128.03L78.2907 127.163L152.871 170.47L153.62 170.905L152.869 171.338L71.7246 218.096L71.2283 217.228L151.621 170.902ZM3.70291 194.832L79.3974 147.793L78.8705 146.941L2.494 194.404L1.81203 194.828L2.49369 195.255L72.3066 238.956L72.8341 238.106L3.70291 194.832ZM153.251 191.469L77.7899 147.801L78.29 146.933L154.507 191.038L155.263 191.475L154.503 191.908L71.722 238.967L71.2308 238.095L153.251 191.469ZM3.70287 213.451L79.397 166.465L78.8705 165.613L2.49421 213.022L1.81207 213.445L2.49345 213.873L72.3063 257.628L72.8344 256.779L3.70287 213.451ZM152.996 209.644L77.7915 166.474L78.2886 165.604L154.249 209.208L155.004 209.642L154.248 210.077L71.7245 257.637L71.2282 256.769L152.996 209.644Z" fill="#C778DD"/>
</svg>
